<mxfile host="app.diagrams.net" modified="2024-06-20T08:03:21.605Z" agent="Mozilla/5.0 (Macintosh; Intel Mac OS X 10_15_7) AppleWebKit/537.36 (KHTML, like Gecko) Chrome/126.0.0.0 Safari/537.36" etag="CbmI63AIupdwMFZSddTg" version="24.5.5" type="device">
  <diagram name="Page-1" id="yn-zXnNMErFhABDRHJE8">
    <mxGraphModel dx="1224" dy="809" grid="1" gridSize="10" guides="1" tooltips="1" connect="1" arrows="1" fold="1" page="1" pageScale="1" pageWidth="850" pageHeight="1100" math="0" shadow="0">
      <root>
        <mxCell id="0" />
        <mxCell id="1" parent="0" />
        <mxCell id="yAGF1HwKdSq51F_CCuUt-1" value="" style="whiteSpace=wrap;html=1;fillColor=#dae8fc;strokeColor=#6c8ebf;" vertex="1" parent="1">
          <mxGeometry x="365" y="200" width="210" height="208" as="geometry" />
        </mxCell>
        <mxCell id="yAGF1HwKdSq51F_CCuUt-3" value="" style="edgeStyle=orthogonalEdgeStyle;rounded=0;orthogonalLoop=1;jettySize=auto;html=1;" edge="1" parent="1" source="yAGF1HwKdSq51F_CCuUt-2" target="yAGF1HwKdSq51F_CCuUt-1">
          <mxGeometry relative="1" as="geometry" />
        </mxCell>
        <mxCell id="yAGF1HwKdSq51F_CCuUt-2" value="Admin client" style="whiteSpace=wrap;html=1;fillColor=#f8cecc;strokeColor=#b85450;" vertex="1" parent="1">
          <mxGeometry x="410" y="450" width="120" height="60" as="geometry" />
        </mxCell>
        <mxCell id="yAGF1HwKdSq51F_CCuUt-21" value="" style="edgeStyle=orthogonalEdgeStyle;rounded=0;orthogonalLoop=1;jettySize=auto;html=1;" edge="1" parent="1" source="yAGF1HwKdSq51F_CCuUt-4" target="yAGF1HwKdSq51F_CCuUt-19">
          <mxGeometry relative="1" as="geometry" />
        </mxCell>
        <mxCell id="yAGF1HwKdSq51F_CCuUt-4" value="Producer client - 1" style="whiteSpace=wrap;html=1;fillColor=#f8cecc;strokeColor=#b85450;" vertex="1" parent="1">
          <mxGeometry x="180" y="170" width="120" height="60" as="geometry" />
        </mxCell>
        <mxCell id="yAGF1HwKdSq51F_CCuUt-22" value="" style="edgeStyle=orthogonalEdgeStyle;rounded=0;orthogonalLoop=1;jettySize=auto;html=1;" edge="1" parent="1" source="yAGF1HwKdSq51F_CCuUt-5" target="yAGF1HwKdSq51F_CCuUt-20">
          <mxGeometry relative="1" as="geometry" />
        </mxCell>
        <mxCell id="yAGF1HwKdSq51F_CCuUt-5" value="Producer client - 2" style="whiteSpace=wrap;html=1;fillColor=#f8cecc;strokeColor=#b85450;" vertex="1" parent="1">
          <mxGeometry x="180" y="280" width="120" height="60" as="geometry" />
        </mxCell>
        <mxCell id="yAGF1HwKdSq51F_CCuUt-6" value="Producer client - 3" style="whiteSpace=wrap;html=1;fillColor=#f8cecc;strokeColor=#b85450;" vertex="1" parent="1">
          <mxGeometry x="180" y="390" width="120" height="60" as="geometry" />
        </mxCell>
        <mxCell id="yAGF1HwKdSq51F_CCuUt-7" value="" style="whiteSpace=wrap;html=1;fillColor=#d5e8d4;strokeColor=#82b366;" vertex="1" parent="1">
          <mxGeometry x="620" y="200" width="140" height="150" as="geometry" />
        </mxCell>
        <mxCell id="yAGF1HwKdSq51F_CCuUt-9" value="Consumer client - 1" style="whiteSpace=wrap;html=1;fillColor=#f8cecc;strokeColor=#b85450;" vertex="1" parent="1">
          <mxGeometry x="630" y="210" width="120" height="60" as="geometry" />
        </mxCell>
        <mxCell id="yAGF1HwKdSq51F_CCuUt-10" value="Consumer client - 2" style="whiteSpace=wrap;html=1;fillColor=#f8cecc;strokeColor=#b85450;" vertex="1" parent="1">
          <mxGeometry x="630" y="280" width="120" height="60" as="geometry" />
        </mxCell>
        <mxCell id="yAGF1HwKdSq51F_CCuUt-11" value="Consumer group" style="text;html=1;align=center;verticalAlign=middle;resizable=0;points=[];autosize=1;strokeColor=none;fillColor=none;" vertex="1" parent="1">
          <mxGeometry x="620" y="168" width="110" height="30" as="geometry" />
        </mxCell>
        <mxCell id="yAGF1HwKdSq51F_CCuUt-12" value="" style="whiteSpace=wrap;html=1;fillColor=#d5e8d4;strokeColor=#82b366;" vertex="1" parent="1">
          <mxGeometry x="620" y="400" width="140" height="80" as="geometry" />
        </mxCell>
        <mxCell id="yAGF1HwKdSq51F_CCuUt-13" value="Consumer client - 1" style="whiteSpace=wrap;html=1;fillColor=#f8cecc;strokeColor=#b85450;" vertex="1" parent="1">
          <mxGeometry x="630" y="410" width="120" height="60" as="geometry" />
        </mxCell>
        <mxCell id="yAGF1HwKdSq51F_CCuUt-15" value="Consumer group" style="text;html=1;align=center;verticalAlign=middle;resizable=0;points=[];autosize=1;strokeColor=none;fillColor=none;" vertex="1" parent="1">
          <mxGeometry x="620" y="368" width="110" height="30" as="geometry" />
        </mxCell>
        <mxCell id="yAGF1HwKdSq51F_CCuUt-16" value="Kafka server with one topic" style="text;html=1;align=center;verticalAlign=middle;resizable=0;points=[];autosize=1;strokeColor=none;fillColor=none;" vertex="1" parent="1">
          <mxGeometry x="360" y="168" width="170" height="30" as="geometry" />
        </mxCell>
        <mxCell id="yAGF1HwKdSq51F_CCuUt-17" value="" style="whiteSpace=wrap;html=1;" vertex="1" parent="1">
          <mxGeometry x="380" y="210" width="180" height="190" as="geometry" />
        </mxCell>
        <mxCell id="yAGF1HwKdSq51F_CCuUt-19" value="Partition - 1" style="whiteSpace=wrap;html=1;fillColor=#f8cecc;strokeColor=#b85450;" vertex="1" parent="1">
          <mxGeometry x="390" y="220" width="160" height="80" as="geometry" />
        </mxCell>
        <mxCell id="yAGF1HwKdSq51F_CCuUt-20" value="Partition - 2" style="whiteSpace=wrap;html=1;fillColor=#f8cecc;strokeColor=#b85450;" vertex="1" parent="1">
          <mxGeometry x="390" y="308" width="160" height="80" as="geometry" />
        </mxCell>
        <mxCell id="yAGF1HwKdSq51F_CCuUt-25" value="" style="edgeStyle=none;orthogonalLoop=1;jettySize=auto;html=1;rounded=0;exitX=1;exitY=0.5;exitDx=0;exitDy=0;entryX=0;entryY=0.25;entryDx=0;entryDy=0;" edge="1" parent="1" source="yAGF1HwKdSq51F_CCuUt-6" target="yAGF1HwKdSq51F_CCuUt-17">
          <mxGeometry width="100" relative="1" as="geometry">
            <mxPoint x="265" y="520" as="sourcePoint" />
            <mxPoint x="365" y="520" as="targetPoint" />
            <Array as="points">
              <mxPoint x="330" y="420" />
              <mxPoint x="330" y="258" />
            </Array>
          </mxGeometry>
        </mxCell>
        <mxCell id="yAGF1HwKdSq51F_CCuUt-26" value="" style="edgeStyle=none;orthogonalLoop=1;jettySize=auto;html=1;rounded=0;exitX=0.944;exitY=0.263;exitDx=0;exitDy=0;exitPerimeter=0;entryX=0;entryY=0.5;entryDx=0;entryDy=0;" edge="1" parent="1" source="yAGF1HwKdSq51F_CCuUt-17" target="yAGF1HwKdSq51F_CCuUt-9">
          <mxGeometry width="100" relative="1" as="geometry">
            <mxPoint x="560" y="560" as="sourcePoint" />
            <mxPoint x="660" y="560" as="targetPoint" />
            <Array as="points" />
          </mxGeometry>
        </mxCell>
        <mxCell id="yAGF1HwKdSq51F_CCuUt-27" value="" style="edgeStyle=none;orthogonalLoop=1;jettySize=auto;html=1;rounded=0;exitX=1;exitY=0.5;exitDx=0;exitDy=0;entryX=0;entryY=0.5;entryDx=0;entryDy=0;" edge="1" parent="1" source="yAGF1HwKdSq51F_CCuUt-20" target="yAGF1HwKdSq51F_CCuUt-10">
          <mxGeometry width="100" relative="1" as="geometry">
            <mxPoint x="530" y="740" as="sourcePoint" />
            <mxPoint x="630" y="740" as="targetPoint" />
            <Array as="points" />
          </mxGeometry>
        </mxCell>
        <mxCell id="yAGF1HwKdSq51F_CCuUt-28" value="" style="edgeStyle=none;orthogonalLoop=1;jettySize=auto;html=1;rounded=0;exitX=1;exitY=0.5;exitDx=0;exitDy=0;entryX=-0.029;entryY=0.375;entryDx=0;entryDy=0;entryPerimeter=0;" edge="1" parent="1" source="yAGF1HwKdSq51F_CCuUt-19" target="yAGF1HwKdSq51F_CCuUt-12">
          <mxGeometry width="100" relative="1" as="geometry">
            <mxPoint x="550" y="620" as="sourcePoint" />
            <mxPoint x="650" y="620" as="targetPoint" />
            <Array as="points">
              <mxPoint x="590" y="380" />
            </Array>
          </mxGeometry>
        </mxCell>
        <mxCell id="yAGF1HwKdSq51F_CCuUt-29" value="" style="edgeStyle=none;orthogonalLoop=1;jettySize=auto;html=1;rounded=0;entryX=0;entryY=0.5;entryDx=0;entryDy=0;" edge="1" parent="1" target="yAGF1HwKdSq51F_CCuUt-12">
          <mxGeometry width="100" relative="1" as="geometry">
            <mxPoint x="550" y="350" as="sourcePoint" />
            <mxPoint x="650" y="580" as="targetPoint" />
            <Array as="points" />
          </mxGeometry>
        </mxCell>
      </root>
    </mxGraphModel>
  </diagram>
</mxfile>
